<svg xmlns="http://www.w3.org/2000/svg" viewBox="0 0 512 512" width="512" height="512">
    <path d="M 256,64 C 313,256 256,199 448,256 C 402,280 342,240 286,256 C 256,247.09 264.91,256 256,226 C 240,170 280,110 256,64 Z" fill="#1fbed2"/>
    <path d="M 448,256 C 256,313 313,256 256,448 C 232,402 272,342 256,286 C 264.91,256 256,264.91 286,256 C 342,240 402,280 448,256 Z" fill="#f5a623"/>
    <path d="M 256,448 C 199,256 256,313 64,256 C 110,232 170,272 226,256 C 256,264.91 247.09,256 256,286 C 272,342 232,402 256,448 Z" fill="#3b5bdb"/>
    <path d="M 64,256 C 256,199 199,256 256,64 C 280,110 240,170 256,226 C 247.09,256 256,247.09 226,256 C 170,272 110,232 64,256 Z" fill="#2f8df0"/>
</svg>
